<svg width="52" height="34" viewBox="0 0 52 34" fill="none" xmlns="http://www.w3.org/2000/svg">
<path d="M2 32.4598V30.668C2 23.7411 7.61537 18.1258 14.5423 18.1258C21.4692 18.1258 27.0845 23.7411 27.0845 30.668V32.4598" stroke="white" stroke-width="3.03" stroke-linecap="round"/>
<path d="M23.5007 21.7092C23.5007 16.7615 27.5118 12.7505 32.4595 12.7505C37.4072 12.7505 41.4183 16.7615 41.4183 21.7092V22.6051" stroke="white" stroke-width="3.03" stroke-linecap="round"/>
<path d="M14.5425 18.1258C18.5007 18.1258 21.7095 14.917 21.7095 10.9588C21.7095 7.00059 18.5007 3.79181 14.5425 3.79181C10.5843 3.79181 7.37549 7.00059 7.37549 10.9588C7.37549 14.917 10.5843 18.1258 14.5425 18.1258Z" stroke="white" stroke-width="3.03" stroke-linecap="round" stroke-linejoin="round"/>
<path d="M32.4596 12.7505C35.4284 12.7505 37.8349 10.3439 37.8349 7.37526C37.8349 4.40659 35.4284 2 32.4596 2C29.4909 2 27.0844 4.40659 27.0844 7.37526C27.0844 10.3439 29.4909 12.7505 32.4596 12.7505Z" stroke="white" stroke-width="3.03" stroke-linecap="round" stroke-linejoin="round"/>
<path d="M35.2598 24.2238H49.82" stroke="white" stroke-width="3.66" stroke-linecap="round" stroke-linejoin="round"/>
<path d="M42.5398 31.6658V16.7819" stroke="white" stroke-width="3.66" stroke-linecap="round" stroke-linejoin="round"/>
</svg>
