<svg width="28" height="29" viewBox="0 0 28 29" fill="none" xmlns="http://www.w3.org/2000/svg">
<path d="M0.3199 11.4031C0.261641 14.338 1.34966 17.1201 3.38375 19.2369C6.09649 22.0597 10.1453 23.2301 13.9501 22.2913C15.3861 21.937 16.7361 21.2907 17.9165 20.4016L25.8381 28.6445L27.7399 26.8169L19.8181 18.5736C21.3739 16.6768 22.2469 14.3307 22.2962 11.8399C22.3545 8.90501 21.2665 6.12288 19.2324 4.00615C16.5199 1.18347 12.471 0.0130464 8.66625 0.951856C6.80329 1.41153 5.08363 2.36091 3.69293 3.69732C1.5762 5.73142 0.3785 8.46807 0.3199 11.4031ZM9.29813 3.51274C12.1909 2.79896 15.269 3.68838 17.3308 5.83393C18.8768 7.44262 19.7037 9.55709 19.6593 11.7877C19.615 14.0182 18.7047 16.0982 17.096 17.644C16.0386 18.66 14.7325 19.3814 13.3184 19.7304C10.4256 20.4441 7.34756 19.5547 5.2857 17.4092C3.73975 15.8005 2.91287 13.6862 2.95728 11.4556C3.00165 9.22486 3.91189 7.14506 5.52058 5.5991C6.57793 4.58312 7.88401 3.86166 9.29813 3.51274Z" fill="white"/>
</svg>
