<svg width="28" height="30" viewBox="0 0 28 30" fill="none" xmlns="http://www.w3.org/2000/svg">
<path d="M13.7674 30C12.8223 30 11.8631 29.7884 11.1155 29.3511L3.35724 24.8795C0.197485 22.7495 0 22.4251 0 19.0819V10.9286C0 7.58552 0.183378 7.26108 3.2867 5.15928L11.1014 0.645351C12.5825 -0.215117 14.91 -0.215117 16.3912 0.645351L24.1777 5.13107C27.3374 7.26108 27.5349 7.58552 27.5349 10.9286V19.0678C27.5349 22.411 27.3516 22.7354 24.2482 24.8372L16.4335 29.3511C15.6718 29.7884 14.7125 30 13.7674 30ZM13.7674 2.12648C13.175 2.12648 12.5966 2.23933 12.1876 2.47913L4.42929 6.96485C2.13001 8.51652 2.13001 8.51652 2.13001 10.9286V19.0678C2.13001 21.48 2.13001 21.48 4.48572 23.0739L12.1876 27.5173C13.0198 27.9969 14.5292 27.9969 15.3614 27.5173L23.1197 23.0316C25.4049 21.48 25.4049 21.48 25.4049 19.0678V10.9286C25.4049 8.51652 25.4049 8.51652 23.0492 6.92253L15.3473 2.47913C14.9382 2.23933 14.3599 2.12648 13.7674 2.12648Z" fill="white"/>
<path d="M13.7673 20.2953C10.8474 20.2953 8.47754 17.9255 8.47754 15.0056C8.47754 12.0856 10.8474 9.71581 13.7673 9.71581C16.6872 9.71581 19.0571 12.0856 19.0571 15.0056C19.0571 17.9255 16.6872 20.2953 13.7673 20.2953ZM13.7673 11.8317C12.0182 11.8317 10.5934 13.2564 10.5934 15.0056C10.5934 16.7547 12.0182 18.1794 13.7673 18.1794C15.5164 18.1794 16.9412 16.7547 16.9412 15.0056C16.9412 13.2564 15.5164 11.8317 13.7673 11.8317Z" fill="white"/>
</svg>
