<svg width="29" height="29" viewBox="0 0 29 29" fill="none" xmlns="http://www.w3.org/2000/svg">
<path d="M10.45 28H18.55C25.3 28 28 25.3 28 18.55V10.45C28 3.7 25.3 1 18.55 1H10.45C3.7 1 1 3.7 1 10.45V18.55C1 25.3 3.7 28 10.45 28Z" stroke="white" stroke-width="1.03" stroke-linecap="round" stroke-linejoin="round"/>
<path d="M10.4499 11.7999C11.9411 11.7999 13.1499 10.5911 13.1499 9.0999C13.1499 7.60873 11.9411 6.3999 10.4499 6.3999C8.95877 6.3999 7.74994 7.60873 7.74994 9.0999C7.74994 10.5911 8.95877 11.7999 10.4499 11.7999Z" stroke="white" stroke-width="1.03" stroke-linecap="round" stroke-linejoin="round"/>
<path d="M1.90454 23.8827L8.56004 19.4142C9.62654 18.6987 11.1655 18.7797 12.124 19.6032L12.5695 19.9947C13.6225 20.8992 15.3235 20.8992 16.3765 19.9947L21.9925 15.1752C23.0455 14.2707 24.7465 14.2707 25.7995 15.1752L28 17.0652" stroke="white" stroke-width="1.03" stroke-linecap="round" stroke-linejoin="round"/>
</svg>
